<svg xmlns="http://www.w3.org/2000/svg" version="1.1" xmlns:xlink="http://www.w3.org/1999/xlink" xmlns:svgjs="http://svgjs.dev/svgjs" width="1536" height="960" preserveAspectRatio="none" viewBox="0 0 1536 960"><g mask="url(&quot;#SvgjsMask1882&quot;)" fill="none"><use xlink:href="#SvgjsG1891" transform="translate(0, 0)" fill="rgba(37, 49, 57, 1)"></use><use xlink:href="#SvgjsG1891" transform="translate(0, 360)" fill="rgba(37, 49, 57, 1)"></use><use xlink:href="#SvgjsG1891" transform="translate(0, 720)" fill="rgba(37, 49, 57, 1)"></use><use xlink:href="#SvgjsG1891" transform="translate(360, 0)" fill="rgba(37, 49, 57, 1)"></use><use xlink:href="#SvgjsG1891" transform="translate(360, 360)" fill="rgba(37, 49, 57, 1)"></use><use xlink:href="#SvgjsG1891" transform="translate(360, 720)" fill="rgba(37, 49, 57, 1)"></use><use xlink:href="#SvgjsG1891" transform="translate(720, 0)" fill="rgba(37, 49, 57, 1)"></use><use xlink:href="#SvgjsG1891" transform="translate(720, 360)" fill="rgba(37, 49, 57, 1)"></use><use xlink:href="#SvgjsG1891" transform="translate(720, 720)" fill="rgba(37, 49, 57, 1)"></use><use xlink:href="#SvgjsG1891" transform="translate(1080, 0)" fill="rgba(37, 49, 57, 1)"></use><use xlink:href="#SvgjsG1891" transform="translate(1080, 360)" fill="rgba(37, 49, 57, 1)"></use><use xlink:href="#SvgjsG1891" transform="translate(1080, 720)" fill="rgba(37, 49, 57, 1)"></use><use xlink:href="#SvgjsG1891" transform="translate(1440, 0)" fill="rgba(37, 49, 57, 1)"></use><use xlink:href="#SvgjsG1891" transform="translate(1440, 360)" fill="rgba(37, 49, 57, 1)"></use><use xlink:href="#SvgjsG1891" transform="translate(1440, 720)" fill="rgba(37, 49, 57, 1)"></use></g><defs><mask id="SvgjsMask1882"><rect width="1536" height="960" fill="#ffffff"></rect></mask><g id="SvgjsG1883"><path d="M7.713 15.485C3.459 15.485 0 12.025 0 7.768 0 3.513 3.459 0.051 7.713 0.051S15.432 3.513 15.432 7.768c0 4.257-3.465 7.716-7.719 7.717z m0-1.91c3.201 0 5.81-2.604 5.81-5.809 0-3.199-2.61-5.807-5.81-5.807-3.202 0-5.804 2.609-5.804 5.807-0.001 3.206 2.602 5.809 5.804 5.809z"></path><path d="M7.753 8.787a0.574 0.574 0 0 1-0.554-0.042 0.578 0.578 0 0 1-0.259-0.399L6.931 3.862a0.58 0.58 0 0 1 1.162 0v3.478l2.975-1.4a0.578 0.578 0 0 1 0.773 0.275c0.138 0.292 0.011 0.637-0.276 0.774l-3.81 1.798z"></path></g><g id="SvgjsG1886"><path d="M2.524 8.637H0.014V7.308h2.51v1.329zM3.656 4.576L1.884 2.804l0.935-0.935 1.772 1.772-0.935 0.935z m0 6.817l0.935 0.935-1.772 1.773-0.934-0.936 1.771-1.772z m4.997-8.884h-1.33V-0.002h1.33v2.511z m-1.33 10.952h1.33v2.51h-1.33v-2.509zM12.344 4.576l-0.96-0.935 1.796-1.772 0.935 0.935-1.772 1.772z m0 6.792l1.771 1.797-0.935 0.936-1.771-1.774 0.936-0.96z m3.643-4.06v1.329h-2.51V7.308h2.509z"></path><path d="M3.702 7.984a4.184 4.184 0 1 0 8.368 0 4.184 4.184 0 1 0-8.368 0"></path></g><g id="SvgjsG1890"><path d="M12.049 4.244l-1.49 11.735H5.527L4.041 4.244h6.146L11.403 0 12.091 0.193l-1.164 4.048 1.122 0.003z" fill-rule="evenodd"></path></g><g id="SvgjsG1889"><path d="M3.236 14.219c1.457 0 2.639-1.182 2.639-2.641 0-1.454-1.182-2.637-2.639-2.637-1.453 0-2.636 1.182-2.636 2.638 0 1.459 1.182 2.641 2.636 2.642zM0 11.578c0-1.787 1.452-3.234 3.236-3.234 1.789 0 3.239 1.446 3.239 3.234 0 1.79-1.45 3.237-3.239 3.237C1.452 14.815 0 13.367 0 11.578z m12.764 2.671c1.453 0 2.636-1.18 2.636-2.639 0-1.457-1.182-2.637-2.636-2.637-1.457 0-2.639 1.181-2.639 2.638 0 1.459 1.182 2.64 2.639 2.64zM9.525 11.61c0-1.789 1.452-3.236 3.239-3.236 1.784 0 3.236 1.446 3.236 3.236s-1.452 3.237-3.236 3.237c-1.788 0-3.239-1.448-3.239-3.237z m0.009-7.898c0.672 0 1.218-0.542 1.218-1.214S10.206 1.28 9.534 1.28s-1.218 0.546-1.218 1.218 0.546 1.214 1.218 1.214z"></path><path d="M9.584 6.666c-0.176 0.004-0.366-0.084-0.506-0.306l-0.791-1.235-1.631 1.614 1.513 0.795c0.622 0.298 0.528 0.844 0.528 0.844v3.424c0 0.388-0.312 0.704-0.701 0.704s-0.701-0.316-0.7-0.704V9.062l-2.623-1.457a1.02 1.02 0 0 1-0.525-0.889 1.003 1.003 0 0 1 0.262-0.683l2.573-2.577c0.32-0.362 0.765-0.304 0.765-0.304 0.539 0 0.823 0.47 0.823 0.47l1.337 2.095 2.03-0.004c0.729 0 0.729 0.952 0 0.952h-2.353z"></path></g><g id="SvgjsG1884"><path d="M15.796 7.558a0.668 0.668 0 0 0-0.057-0.164l-2.897-2.3H7.012c-0.135-0.008-0.208 0.055-0.272 0.13L4.792 7.176 0.531 7.884c-0.059 0.051-0.119 0.102-0.167 0.236l0.01 1.466c0.092 0.235 0.154 0.204 0.225 0.237h0.82c0-1.993 2.968-1.985 2.968 0h7.57c0-1.997 2.946-1.993 2.946 0h0.673c0.113-0.011 0.177-0.11 0.23-0.227l-0.011-2.038z m-6.258-0.095h-4.038c-0.154-0.061-0.175-0.152-0.111-0.265l1.451-1.432c0.033-0.028 0.059-0.066 0.116-0.058h2.582v1.755z m4.182 0h-3.702v-1.755h2.172c0.057-0.008 0.083 0.03 0.116 0.058l1.244 1.254c0.114 0.173 0.345 0.409 0.169 0.444z" fill-rule="evenodd"></path><path d="M2.897 8.621a1.205 1.205 0 1 0 0 2.41 1.205 1.205 0 0 0 0-2.41z m0 1.71a0.509 0.509 0 1 1 0-1.017 0.509 0.509 0 0 1 0 1.018zM13.431 8.62a1.205 1.205 0 1 0 0 2.41 1.205 1.205 0 0 0 0-2.41z m0 1.71a0.509 0.509 0 1 1 0-1.016 0.509 0.509 0 0 1 0 1.018z" fill-rule="evenodd"></path></g><g id="SvgjsG1888"><path d="M15.964 4.774l-1.312 10.327H10.223L8.916 4.774h5.408L15.395 1.04 16 1.21l-1.024 3.562 0.988 0.002zM8.29 10.788s0.166-1.502-2.131-1.502H2.5c-2.293 0-2.131 1.502-2.132 1.502h7.922zM0.368 13.595s-0.162 1.506 2.132 1.506h3.659c2.297 0 2.131-1.506 2.131-1.506H0.369z m7.578-0.727a0.68 0.68 0 0 0 0.68-0.68c0-0.372-0.304-0.676-0.68-0.676H0.68C0.306 11.512 0 11.816 0 12.188a0.682 0.682 0 0 0 0.68 0.68h7.266z"></path></g><g id="SvgjsG1887"><path d="M7.741 5.269c-0.003 0.523-0.481 1.084-1.101 1.084v8.856c0 1.261-1.714 1.261-1.716 0V6.354c-0.602 0-1.127-0.465-1.126-1.159V0.315c-0.001-0.423 0.612-0.44 0.616 0.017v3.606h0.51V0.299c0-0.389 0.59-0.414 0.591 0.016v3.623h0.526V0.307C6.044-0.103 6.618-0.12 6.616 0.323v3.615h0.526V0.307c-0.002-0.406 0.597-0.423 0.599 0.016v4.946zM12.309 1.449v13.76c0.002 1.229-1.715 1.211-1.717 0V9.746h-0.912V1.449c-0.001-1.932 2.631-1.932 2.629 0z"></path></g><g id="SvgjsG1885"><path d="M8.067-0.016c-3.304 0-5.982 2.678-5.982 5.982 0 5.588 5.982 10.054 5.982 10.054s5.982-4.466 5.982-10.054c0-3.304-2.678-5.982-5.982-5.982z m0 8.625c-1.46 0-2.643-1.183-2.643-2.643S6.607 3.323 8.067 3.323s2.643 1.183 2.643 2.643S9.527 8.609 8.067 8.609z"></path></g><g id="SvgjsG1891"><use xlink:href="#SvgjsG1883" transform="translate(0, 0) scale(1.5)" fill="rgba(37, 49, 57, 1)"></use><use xlink:href="#SvgjsG1884" transform="translate(0, 36) scale(1.5)" fill="rgba(37, 49, 57, 1)"></use><use xlink:href="#SvgjsG1885" transform="translate(0, 72) scale(1.5)" fill="rgba(37, 49, 57, 1)"></use><use xlink:href="#SvgjsG1886" transform="translate(0, 108) scale(1.5)" fill="rgba(37, 49, 57, 1)"></use><use xlink:href="#SvgjsG1887" transform="translate(0, 144) scale(1.5)" fill="rgba(37, 49, 57, 1)"></use><use xlink:href="#SvgjsG1883" transform="translate(0, 180) scale(1.5)" fill="rgba(37, 49, 57, 1)"></use><use xlink:href="#SvgjsG1884" transform="translate(0, 216) scale(1.5)" fill="rgba(37, 49, 57, 1)"></use><use xlink:href="#SvgjsG1886" transform="translate(0, 252) scale(1.5)" fill="rgba(37, 49, 57, 1)"></use><use xlink:href="#SvgjsG1885" transform="translate(0, 288) scale(1.5)" fill="rgba(37, 49, 57, 1)"></use><use xlink:href="#SvgjsG1888" transform="translate(0, 324) scale(1.5)" fill="rgba(37, 49, 57, 1)"></use><use xlink:href="#SvgjsG1886" transform="translate(36, 0) scale(1.5)" fill="rgba(37, 49, 57, 1)"></use><use xlink:href="#SvgjsG1888" transform="translate(36, 36) scale(1.5)" fill="rgba(37, 49, 57, 1)"></use><use xlink:href="#SvgjsG1885" transform="translate(36, 72) scale(1.5)" fill="rgba(37, 49, 57, 1)"></use><use xlink:href="#SvgjsG1885" transform="translate(36, 108) scale(1.5)" fill="rgba(37, 49, 57, 1)"></use><use xlink:href="#SvgjsG1887" transform="translate(36, 144) scale(1.5)" fill="rgba(37, 49, 57, 1)"></use><use xlink:href="#SvgjsG1887" transform="translate(36, 180) scale(1.5)" fill="rgba(37, 49, 57, 1)"></use><use xlink:href="#SvgjsG1884" transform="translate(36, 216) scale(1.5)" fill="rgba(37, 49, 57, 1)"></use><use xlink:href="#SvgjsG1883" transform="translate(36, 252) scale(1.5)" fill="rgba(37, 49, 57, 1)"></use><use xlink:href="#SvgjsG1884" transform="translate(36, 288) scale(1.5)" fill="rgba(37, 49, 57, 1)"></use><use xlink:href="#SvgjsG1885" transform="translate(36, 324) scale(1.5)" fill="rgba(37, 49, 57, 1)"></use><use xlink:href="#SvgjsG1885" transform="translate(72, 0) scale(1.5)" fill="rgba(37, 49, 57, 1)"></use><use xlink:href="#SvgjsG1888" transform="translate(72, 36) scale(1.5)" fill="rgba(37, 49, 57, 1)"></use><use xlink:href="#SvgjsG1885" transform="translate(72, 72) scale(1.5)" fill="rgba(37, 49, 57, 1)"></use><use xlink:href="#SvgjsG1885" transform="translate(72, 108) scale(1.5)" fill="rgba(37, 49, 57, 1)"></use><use xlink:href="#SvgjsG1889" transform="translate(72, 144) scale(1.5)" fill="rgba(37, 49, 57, 1)"></use><use xlink:href="#SvgjsG1884" transform="translate(72, 180) scale(1.5)" fill="rgba(37, 49, 57, 1)"></use><use xlink:href="#SvgjsG1885" transform="translate(72, 216) scale(1.5)" fill="rgba(37, 49, 57, 1)"></use><use xlink:href="#SvgjsG1886" transform="translate(72, 252) scale(1.5)" fill="rgba(37, 49, 57, 1)"></use><use xlink:href="#SvgjsG1884" transform="translate(72, 288) scale(1.5)" fill="rgba(37, 49, 57, 1)"></use><use xlink:href="#SvgjsG1886" transform="translate(72, 324) scale(1.5)" fill="rgba(37, 49, 57, 1)"></use><use xlink:href="#SvgjsG1890" transform="translate(108, 0) scale(1.5)" fill="rgba(37, 49, 57, 1)"></use><use xlink:href="#SvgjsG1888" transform="translate(108, 36) scale(1.5)" fill="rgba(37, 49, 57, 1)"></use><use xlink:href="#SvgjsG1890" transform="translate(108, 72) scale(1.5)" fill="rgba(37, 49, 57, 1)"></use><use xlink:href="#SvgjsG1888" transform="translate(108, 108) scale(1.5)" fill="rgba(37, 49, 57, 1)"></use><use xlink:href="#SvgjsG1884" transform="translate(108, 144) scale(1.5)" fill="rgba(37, 49, 57, 1)"></use><use xlink:href="#SvgjsG1884" transform="translate(108, 180) scale(1.5)" fill="rgba(37, 49, 57, 1)"></use><use xlink:href="#SvgjsG1883" transform="translate(108, 216) scale(1.5)" fill="rgba(37, 49, 57, 1)"></use><use xlink:href="#SvgjsG1887" transform="translate(108, 252) scale(1.5)" fill="rgba(37, 49, 57, 1)"></use><use xlink:href="#SvgjsG1887" transform="translate(108, 288) scale(1.5)" fill="rgba(37, 49, 57, 1)"></use><use xlink:href="#SvgjsG1890" transform="translate(108, 324) scale(1.5)" fill="rgba(37, 49, 57, 1)"></use><use xlink:href="#SvgjsG1887" transform="translate(144, 0) scale(1.5)" fill="rgba(37, 49, 57, 1)"></use><use xlink:href="#SvgjsG1884" transform="translate(144, 36) scale(1.5)" fill="rgba(37, 49, 57, 1)"></use><use xlink:href="#SvgjsG1889" transform="translate(144, 72) scale(1.5)" fill="rgba(37, 49, 57, 1)"></use><use xlink:href="#SvgjsG1887" transform="translate(144, 108) scale(1.5)" fill="rgba(37, 49, 57, 1)"></use><use xlink:href="#SvgjsG1887" transform="translate(144, 144) scale(1.5)" fill="rgba(37, 49, 57, 1)"></use><use xlink:href="#SvgjsG1888" transform="translate(144, 180) scale(1.5)" fill="rgba(37, 49, 57, 1)"></use><use xlink:href="#SvgjsG1888" transform="translate(144, 216) scale(1.5)" fill="rgba(37, 49, 57, 1)"></use><use xlink:href="#SvgjsG1889" transform="translate(144, 252) scale(1.5)" fill="rgba(37, 49, 57, 1)"></use><use xlink:href="#SvgjsG1887" transform="translate(144, 288) scale(1.5)" fill="rgba(37, 49, 57, 1)"></use><use xlink:href="#SvgjsG1888" transform="translate(144, 324) scale(1.5)" fill="rgba(37, 49, 57, 1)"></use><use xlink:href="#SvgjsG1890" transform="translate(180, 0) scale(1.5)" fill="rgba(37, 49, 57, 1)"></use><use xlink:href="#SvgjsG1887" transform="translate(180, 36) scale(1.5)" fill="rgba(37, 49, 57, 1)"></use><use xlink:href="#SvgjsG1883" transform="translate(180, 72) scale(1.5)" fill="rgba(37, 49, 57, 1)"></use><use xlink:href="#SvgjsG1885" transform="translate(180, 108) scale(1.5)" fill="rgba(37, 49, 57, 1)"></use><use xlink:href="#SvgjsG1888" transform="translate(180, 144) scale(1.5)" fill="rgba(37, 49, 57, 1)"></use><use xlink:href="#SvgjsG1886" transform="translate(180, 180) scale(1.5)" fill="rgba(37, 49, 57, 1)"></use><use xlink:href="#SvgjsG1889" transform="translate(180, 216) scale(1.5)" fill="rgba(37, 49, 57, 1)"></use><use xlink:href="#SvgjsG1888" transform="translate(180, 252) scale(1.5)" fill="rgba(37, 49, 57, 1)"></use><use xlink:href="#SvgjsG1887" transform="translate(180, 288) scale(1.5)" fill="rgba(37, 49, 57, 1)"></use><use xlink:href="#SvgjsG1886" transform="translate(180, 324) scale(1.5)" fill="rgba(37, 49, 57, 1)"></use><use xlink:href="#SvgjsG1886" transform="translate(216, 0) scale(1.5)" fill="rgba(37, 49, 57, 1)"></use><use xlink:href="#SvgjsG1885" transform="translate(216, 36) scale(1.5)" fill="rgba(37, 49, 57, 1)"></use><use xlink:href="#SvgjsG1884" transform="translate(216, 72) scale(1.5)" fill="rgba(37, 49, 57, 1)"></use><use xlink:href="#SvgjsG1890" transform="translate(216, 108) scale(1.5)" fill="rgba(37, 49, 57, 1)"></use><use xlink:href="#SvgjsG1886" transform="translate(216, 144) scale(1.5)" fill="rgba(37, 49, 57, 1)"></use><use xlink:href="#SvgjsG1885" transform="translate(216, 180) scale(1.5)" fill="rgba(37, 49, 57, 1)"></use><use xlink:href="#SvgjsG1888" transform="translate(216, 216) scale(1.5)" fill="rgba(37, 49, 57, 1)"></use><use xlink:href="#SvgjsG1890" transform="translate(216, 252) scale(1.5)" fill="rgba(37, 49, 57, 1)"></use><use xlink:href="#SvgjsG1885" transform="translate(216, 288) scale(1.5)" fill="rgba(37, 49, 57, 1)"></use><use xlink:href="#SvgjsG1888" transform="translate(216, 324) scale(1.5)" fill="rgba(37, 49, 57, 1)"></use><use xlink:href="#SvgjsG1886" transform="translate(252, 0) scale(1.5)" fill="rgba(37, 49, 57, 1)"></use><use xlink:href="#SvgjsG1885" transform="translate(252, 36) scale(1.5)" fill="rgba(37, 49, 57, 1)"></use><use xlink:href="#SvgjsG1887" transform="translate(252, 72) scale(1.5)" fill="rgba(37, 49, 57, 1)"></use><use xlink:href="#SvgjsG1887" transform="translate(252, 108) scale(1.5)" fill="rgba(37, 49, 57, 1)"></use><use xlink:href="#SvgjsG1883" transform="translate(252, 144) scale(1.5)" fill="rgba(37, 49, 57, 1)"></use><use xlink:href="#SvgjsG1888" transform="translate(252, 180) scale(1.5)" fill="rgba(37, 49, 57, 1)"></use><use xlink:href="#SvgjsG1884" transform="translate(252, 216) scale(1.5)" fill="rgba(37, 49, 57, 1)"></use><use xlink:href="#SvgjsG1886" transform="translate(252, 252) scale(1.5)" fill="rgba(37, 49, 57, 1)"></use><use xlink:href="#SvgjsG1890" transform="translate(252, 288) scale(1.5)" fill="rgba(37, 49, 57, 1)"></use><use xlink:href="#SvgjsG1885" transform="translate(252, 324) scale(1.5)" fill="rgba(37, 49, 57, 1)"></use><use xlink:href="#SvgjsG1889" transform="translate(288, 0) scale(1.5)" fill="rgba(37, 49, 57, 1)"></use><use xlink:href="#SvgjsG1885" transform="translate(288, 36) scale(1.5)" fill="rgba(37, 49, 57, 1)"></use><use xlink:href="#SvgjsG1886" transform="translate(288, 72) scale(1.5)" fill="rgba(37, 49, 57, 1)"></use><use xlink:href="#SvgjsG1889" transform="translate(288, 108) scale(1.5)" fill="rgba(37, 49, 57, 1)"></use><use xlink:href="#SvgjsG1885" transform="translate(288, 144) scale(1.5)" fill="rgba(37, 49, 57, 1)"></use><use xlink:href="#SvgjsG1884" transform="translate(288, 180) scale(1.5)" fill="rgba(37, 49, 57, 1)"></use><use xlink:href="#SvgjsG1889" transform="translate(288, 216) scale(1.5)" fill="rgba(37, 49, 57, 1)"></use><use xlink:href="#SvgjsG1883" transform="translate(288, 252) scale(1.5)" fill="rgba(37, 49, 57, 1)"></use><use xlink:href="#SvgjsG1888" transform="translate(288, 288) scale(1.5)" fill="rgba(37, 49, 57, 1)"></use><use xlink:href="#SvgjsG1885" transform="translate(288, 324) scale(1.5)" fill="rgba(37, 49, 57, 1)"></use><use xlink:href="#SvgjsG1888" transform="translate(324, 0) scale(1.5)" fill="rgba(37, 49, 57, 1)"></use><use xlink:href="#SvgjsG1890" transform="translate(324, 36) scale(1.5)" fill="rgba(37, 49, 57, 1)"></use><use xlink:href="#SvgjsG1889" transform="translate(324, 72) scale(1.5)" fill="rgba(37, 49, 57, 1)"></use><use xlink:href="#SvgjsG1887" transform="translate(324, 108) scale(1.5)" fill="rgba(37, 49, 57, 1)"></use><use xlink:href="#SvgjsG1887" transform="translate(324, 144) scale(1.5)" fill="rgba(37, 49, 57, 1)"></use><use xlink:href="#SvgjsG1887" transform="translate(324, 180) scale(1.5)" fill="rgba(37, 49, 57, 1)"></use><use xlink:href="#SvgjsG1883" transform="translate(324, 216) scale(1.5)" fill="rgba(37, 49, 57, 1)"></use><use xlink:href="#SvgjsG1884" transform="translate(324, 252) scale(1.5)" fill="rgba(37, 49, 57, 1)"></use><use xlink:href="#SvgjsG1888" transform="translate(324, 288) scale(1.5)" fill="rgba(37, 49, 57, 1)"></use><use xlink:href="#SvgjsG1885" transform="translate(324, 324) scale(1.5)" fill="rgba(37, 49, 57, 1)"></use></g></defs></svg>